<?xml version="1.0" encoding="UTF-8"?>
<svg version="1.1" xmlns="http://www.w3.org/2000/svg" width="64" height="64">
<path d="M0 0 C21.12 0 42.24 0 64 0 C64 21.12 64 42.24 64 64 C42.88 64 21.76 64 0 64 C0 42.88 0 21.76 0 0 Z " fill="#4C4B5A" transform="translate(0,0)"/>
<path d="M0 0 C4.29 0 8.58 0 13 0 C13 21.12 13 42.24 13 64 C3.43 64 -6.14 64 -16 64 C-15.34 62.68 -14.68 61.36 -14 60 C-13.01 60 -12.02 60 -11 60 C-11 55.38 -11 50.76 -11 46 C-9.35 45.34 -7.7 44.68 -6 44 C-5.67 43.34 -5.34 42.68 -5 42 C-6.5159375 42.3403125 -6.5159375 42.3403125 -8.0625 42.6875 C-12.67242354 43.05336695 -14.87019502 41.95227145 -19 40 C-20.98821313 39.60235737 -22.98732362 39.24544834 -25 39 C-25.33 39.66 -25.66 40.32 -26 41 C-27 40 -27 40 -27.1875 37.0625 C-27 34 -27 34 -25 32 C-22.5 31.75 -22.5 31.75 -20 32 C-19.34 32.66 -18.68 33.32 -18 34 C-18 31.03 -18 28.06 -18 25 C-18.66 25 -19.32 25 -20 25 C-20 23.68 -20 22.36 -20 21 C-19.34 21 -18.68 21 -18 21 C-18 21.99 -18 22.98 -18 24 C-17.01 24 -16.02 24 -15 24 C-15.350625 22.9275 -15.70125 21.855 -16.0625 20.75 C-17.23076923 16.07692308 -17.23076923 16.07692308 -16 13 C-15.34 13 -14.68 13 -14 13 C-14 14.65 -14 16.3 -14 18 C-11.36 18 -8.72 18 -6 18 C-6 18.66 -6 19.32 -6 20 C-5.34 20 -4.68 20 -4 20 C-4 18.68 -4 17.36 -4 16 C-3.01 16 -2.02 16 -1 16 C-1 17.32 -1 18.64 -1 20 C-0.34 20 0.32 20 1 20 C1.33 19.34 1.66 18.68 2 18 C2.23545304 23.76859956 1.81400484 28.45127932 0 34 C-1.0598703 37.70604812 -1.0598703 37.70604812 -0.0625 41.3125 C0.288125 41.869375 0.63875 42.42625 1 43 C3.32084567 40.67915433 2.17174732 34.91741874 2.18554688 31.83398438 C2.18546631 31.15166748 2.18538574 30.46935059 2.18530273 29.76635742 C2.18745087 27.73398656 2.2054862 25.70219369 2.22460938 23.66992188 C2.23661908 15.5313442 1.57255329 7.98707894 0 0 Z " fill="#F9E4DC" transform="translate(51,0)"/>
<path d="M0 0 C5.39346988 -0.02464849 10.78690725 -0.04283531 16.18041992 -0.05493164 C18.01668875 -0.05997231 19.85295354 -0.06680477 21.68920898 -0.07543945 C24.32276401 -0.08751672 26.95626616 -0.09323081 29.58984375 -0.09765625 C30.41588608 -0.10281754 31.24192841 -0.10797882 32.09300232 -0.11329651 C34.06236368 -0.11349205 36.03161614 -0.06204152 38 0 C42.68781091 4.68781091 41.261574 17.50950919 41.2734375 23.53320312 C41.26715332 24.52525757 41.26715332 24.52525757 41.26074219 25.53735352 C41.24984911 27.59094641 41.26078967 29.64369625 41.2734375 31.69726562 C41.27085938 32.99470703 41.26828125 34.29214844 41.265625 35.62890625 C41.26336914 36.80525635 41.26111328 37.98160645 41.25878906 39.19360352 C41 42 41 42 39 44 C35.94312796 39.72037915 35.94312796 39.72037915 36.1875 36.625 C36.80707031 34.62331131 37.43328643 32.62367839 38.0625 30.625 C39.01898659 26.92658518 39.15515962 23.80141066 39 20 C38.34 20 37.68 20 37 20 C37 18.68 37 17.36 37 16 C36.01 16 35.02 16 34 16 C34 17.32 34 18.64 34 20 C33.34 20 32.68 20 32 20 C32 19.34 32 18.68 32 18 C29.36 18 26.72 18 24 18 C24 16.35 24 14.7 24 13 C23.34 13 22.68 13 22 13 C21.67 14.98 21.34 16.96 21 19 C21.66 19.33 22.32 19.66 23 20 C23 21.32 23 22.64 23 24 C22.01 24 21.02 24 20 24 C20 23.01 20 22.02 20 21 C19.34 21 18.68 21 18 21 C18 23.97 18 26.94 18 30 C15 29 15 29 13.625 26.5 C12.22066726 23.75147228 12.22066726 23.75147228 9.3125 23.1875 C8.1678125 23.0946875 8.1678125 23.0946875 7 23 C6.67 24.32 6.34 25.64 6 27 C5.01 27 4.02 27 3 27 C3.33 30.63 3.66 34.26 4 38 C3.67 38 3.34 38 3 38 C2.67 40.31 2.34 42.62 2 45 C1.505 43.515 1.505 43.515 1 42 C0.34 42 -0.32 42 -1 42 C-1.02470469 36.50073576 -1.04286223 31.00150378 -1.05493164 25.50219727 C-1.05996279 23.63109779 -1.06678835 21.76000225 -1.07543945 19.88891602 C-1.08755829 17.20067372 -1.09324047 14.51248336 -1.09765625 11.82421875 C-1.10281754 10.98662521 -1.10797882 10.14903168 -1.11329651 9.28605652 C-1.11362064 5.93624258 -1.06684515 3.20053544 0 0 Z " fill="#4E4C5B" transform="translate(13,0)"/>
<path d="M0 0 C2.25 -0.375 2.25 -0.375 5 0 C7.1875 2.9375 7.1875 2.9375 9 6 C9.66 6.33 10.32 6.66 11 7 C11 5.35 11 3.7 11 2 C11.66 2 12.32 2 13 2 C13.33 5.63 13.66 9.26 14 13 C13.01 12.01 12.02 11.02 11 10 C8.41583753 9.66625723 8.41583753 9.66625723 6 10 C4.64381501 11.12534105 4.64381501 11.12534105 4.9375 14.0625 C4.958125 15.031875 4.97875 16.00125 5 17 C5.33 16.67 5.66 16.34 6 16 C9.77351141 15.64061796 11.92848411 15.96879307 15.4375 17.5 C19.2608126 19.10981583 21.89886199 19.25109008 26 19 C25 22 25 22 21 24 C21 28.62 21 33.24 21 38 C19.68 38 18.36 38 17 38 C16.34 38.99 15.68 39.98 15 41 C12.2114711 41.22107787 9.65346819 41.28107535 6.875 41.1875 C5.74384766 41.16719727 5.74384766 41.16719727 4.58984375 41.14648438 C2.72625873 41.11109985 0.86304022 41.05729167 -1 41 C-4.68494027 33.47658029 -4.28710687 26.16659545 -4 18 C-3.67 18 -3.34 18 -3 18 C-3.52537724 12.9697924 -4.10594786 7.98114761 -5 3 C-3.68 3.33 -2.36 3.66 -1 4 C-0.67 2.68 -0.34 1.36 0 0 Z " fill="#EED2CB" transform="translate(20,23)"/>
<path d="M0 0 C4.29 0 8.58 0 13 0 C13.04934926 5.65998046 13.08569529 11.31983636 13.10986328 16.97998047 C13.11993582 18.90643494 13.13359443 20.83287408 13.15087891 22.75927734 C13.17507241 25.52445252 13.18647036 28.289426 13.1953125 31.0546875 C13.20563507 31.9193161 13.21595764 32.7839447 13.22659302 33.67477417 C13.22699106 35.78453521 13.12265243 37.89380718 13 40 C12.34 40.66 11.68 41.32 11 42 C10.71821011 44.82992169 10.71821011 44.82992169 10.8125 48 C10.81894531 49.0725 10.82539062 50.145 10.83203125 51.25 C10.81736577 53.96127498 10.81736577 53.96127498 12 56 C11.01 56 10.02 56 9 56 C7.4296875 53.953125 7.4296875 53.953125 5.875 51.25 C5.35679688 50.36828125 4.83859375 49.4865625 4.3046875 48.578125 C2.04251944 44.10797254 1.89519033 40.46825446 1.97265625 35.46875 C1.98490234 34.18226562 1.99714844 32.89578125 2.00976562 31.5703125 C2.04234484 28.88784942 2.08347713 26.20577442 2.12695312 23.5234375 C2.19548115 15.41294435 1.57599588 7.9603243 0 0 Z " fill="#FCF9FA" transform="translate(51,0)"/>
<path d="M0 0 C2.64 0 5.28 0 8 0 C7.60305343 5.37967058 7.15632989 10.01348713 5 15 C4.6186926 17.32597511 4.27539746 19.65912158 4 22 C4.66 22 5.32 22 6 22 C11.28673582 55.42652835 11.28673582 55.42652835 7 64 C4.69 64 2.38 64 0 64 C0 42.88 0 21.76 0 0 Z " fill="#FDFDFD" transform="translate(0,0)"/>
<path d="M0 0 C0.66 0 1.32 0 2 0 C2 1.65 2 3.3 2 5 C4.64 5 7.28 5 10 5 C10 5.66 10 6.32 10 7 C10.66 7 11.32 7 12 7 C12 5.68 12 4.36 12 3 C12.99 3 13.98 3 15 3 C15.33 6.63 15.66 10.26 16 14 C11.38 14.33 6.76 14.66 2 15 C2 17.31 2 19.62 2 22 C4.97 22 7.94 22 11 22 C11 24.31 11 26.62 11 29 C5.20798218 30.3002489 2.30002435 29.50546606 -3 27 C-4.98821313 26.60235737 -6.98732362 26.24544834 -9 26 C-9.33 26.66 -9.66 27.32 -10 28 C-11 27 -11 27 -11.1875 24.0625 C-11 21 -11 21 -9 19 C-6.5 18.75 -6.5 18.75 -4 19 C-3.34 19.66 -2.68 20.32 -2 21 C-2 18.03 -2 15.06 -2 12 C-2.66 12 -3.32 12 -4 12 C-4 10.68 -4 9.36 -4 8 C-3.34 8 -2.68 8 -2 8 C-2 8.99 -2 9.98 -2 11 C-1.01 11 -0.02 11 1 11 C0.649375 9.9275 0.29875 8.855 -0.0625 7.75 C-1.23076923 3.07692308 -1.23076923 3.07692308 0 0 Z " fill="#F4C3BC" transform="translate(35,13)"/>
<path d="M0 0 C2.98613363 1.38641918 5.62505725 2.70292422 8 5 C8.609375 8.13671875 8.609375 8.13671875 8.75 11.6875 C8.80671875 12.86699219 8.8634375 14.04648437 8.921875 15.26171875 C8.96054687 16.61716797 8.96054687 16.61716797 9 18 C8.01 18.33 7.02 18.66 6 19 C7.299375 19.7734375 7.299375 19.7734375 8.625 20.5625 C12.46201739 23.09310433 15.16675882 26.42328418 18 30 C17.360625 30.5775 16.72125 31.155 16.0625 31.75 C13.65903372 34.01303649 13.65903372 34.01303649 13 38 C10.03 38 7.06 38 4 38 C0.31505973 30.47658029 0.71289313 23.16659545 1 15 C1.33 15 1.66 15 2 15 C1.47462276 9.9697924 0.89405214 4.98114761 0 0 Z " fill="#F8EEE8" transform="translate(15,26)"/>
<path d="M0 0 C0.84157005 2.52471014 1.06552784 3.77363111 0.3125 6.375 C-0.14199616 10.19276775 1.80472919 12.09887515 4 15 C5.09409192 16.57591828 6.17701418 18.15963621 7.25 19.75 C7.77078125 20.50796875 8.2915625 21.2659375 8.828125 22.046875 C10 24 10 24 10 26 C10.66 25.67 11.32 25.34 12 25 C11.67 24.67 11.34 24.34 11 24 C10.84873769 22.02486333 10.77826234 20.04321865 10.75 18.0625 C10.71132813 16.44021484 10.71132813 16.44021484 10.671875 14.78515625 C10.78015625 13.86605469 10.8884375 12.94695313 11 12 C11.99 11.34 12.98 10.68 14 10 C14 17.92 14 25.84 14 34 C11.36 34 8.72 34 6 34 C5.51789062 32.96359375 5.03578125 31.9271875 4.5390625 30.859375 C3.90107098 29.48956968 3.26304852 28.11977877 2.625 26.75 C2.30789062 26.06808594 1.99078125 25.38617188 1.6640625 24.68359375 C1.3546875 24.01972656 1.0453125 23.35585938 0.7265625 22.671875 C0.42741943 22.02605469 0.12827637 21.38023438 -0.17993164 20.71484375 C-0.80634292 19.40495604 -1.49387548 18.12413021 -2.20703125 16.859375 C-3.27702045 14.3504348 -3.30129732 12.21851614 -3.3125 9.5 C-3.32925781 8.5615625 -3.34601562 7.623125 -3.36328125 6.65625 C-2.94768059 3.61744947 -2.01958576 2.25937827 0 0 Z " fill="#F7F4EE" transform="translate(50,30)"/>
<path d="M0 0 C0.66 0 1.32 0 2 0 C2.09796875 0.62648437 2.1959375 1.25296875 2.296875 1.8984375 C2.44640625 2.71570313 2.5959375 3.53296875 2.75 4.375 C2.88921875 5.18710938 3.0284375 5.99921875 3.171875 6.8359375 C3.81749261 9.17709092 3.81749261 9.17709092 6.078125 10.2890625 C6.71234375 10.52367187 7.3465625 10.75828125 8 11 C7.01 11.33 6.02 11.66 5 12 C6.32 13.32 7.64 14.64 9 16 C8.67 16.66 8.34 17.32 8 18 C7.34 17.67 6.68 17.34 6 17 C6 17.99 6 18.98 6 20 C7.65 20.33 9.3 20.66 11 21 C11 21.66 11 22.32 11 23 C9.68 22.67 8.36 22.34 7 22 C6.67 23.32 6.34 24.64 6 26 C5.01 26 4.02 26 3 26 C3.33 29.63 3.66 33.26 4 37 C3.67 37 3.34 37 3 37 C2.67 39.31 2.34 41.62 2 44 C1.505 42.515 1.505 42.515 1 41 C0.34 41 -0.32 41 -1 41 C-1.02467609 35.48242521 -1.04284856 29.96488239 -1.05493164 24.44726562 C-1.05996763 22.56933025 -1.06679671 20.6913988 -1.07543945 18.81347656 C-1.08753713 16.11782868 -1.09323557 13.42223253 -1.09765625 10.7265625 C-1.10281754 9.88380768 -1.10797882 9.04105286 -1.11329651 8.17276001 C-1.11387171 2.22774341 -1.11387171 2.22774341 0 0 Z " fill="#3F3946" transform="translate(13,1)"/>
<path d="M0 0 C2.83556803 2.83556803 3.77445029 6.30375868 5.125 10 C5.40214844 10.73734375 5.67929687 11.4746875 5.96484375 12.234375 C8 17.72829433 8 17.72829433 8 20 C2.06 20 -3.88 20 -10 20 C-9.34 18.68 -8.68 17.36 -8 16 C-7.01 16 -6.02 16 -5 16 C-5 11.38 -5 6.76 -5 2 C-3.35 1.34 -1.7 0.68 0 0 Z " fill="#FDFAF4" transform="translate(45,44)"/>
<path d="M0 0 C2.03635012 4.07270024 2.68456971 7.49979291 3.1875 11.9375 C3.27427002 12.68588135 3.36104004 13.4342627 3.45043945 14.20532227 C5.06809915 29.86380169 5.06809915 29.86380169 2 36 C-0.31 36 -2.62 36 -5 36 C-5 30.06 -5 24.12 -5 18 C-3.35 18.33 -1.7 18.66 0 19 C0 12.73 0 6.46 0 0 Z " fill="#F3F3F3" transform="translate(5,28)"/>
<path d="M0 0 C0.66 0 1.32 0 2 0 C2 0.99 2 1.98 2 3 C2.99 3.33 3.98 3.66 5 4 C4.34 4 3.68 4 3 4 C3.2165625 4.93972656 3.2165625 4.93972656 3.4375 5.8984375 C3.623125 6.71570313 3.80875 7.53296875 4 8.375 C4.185625 9.18710937 4.37125 9.99921875 4.5625 10.8359375 C5 13 5 13 5 15 C7.64 15.33 10.28 15.66 13 16 C13.38218767 17.65614657 13.71395102 19.32457024 14 21 C13 22 13 22 10.875 22.25 C7.176364 21.92837948 4.38908924 20.48644265 1 19 C-0.98821313 18.60235737 -2.98732362 18.24544834 -5 18 C-5.33 18.66 -5.66 19.32 -6 20 C-7 19 -7 19 -7.1875 16.0625 C-7 13 -7 13 -5 11 C-2.5 10.75 -2.5 10.75 0 11 C0.66 11.66 1.32 12.32 2 13 C2 10.03 2 7.06 2 4 C1.34 4 0.68 4 0 4 C0 2.68 0 1.36 0 0 Z " fill="#F7F0EB" transform="translate(31,21)"/>
<path d="M0 0 C0.99 0.33 1.98 0.66 3 1 C3 3.64 3 6.28 3 9 C2.67 9 2.34 9 2 9 C1.6523343 18.19372448 1.6523343 18.19372448 4 27 C4 27.66 4 28.32 4 29 C0.7 29 -2.6 29 -6 29 C-6 26.03 -6 23.06 -6 20 C-5.34 20 -4.68 20 -4 20 C-3.67 20.99 -3.34 21.98 -3 23 C-2.97301811 21.37509046 -2.95361243 19.75005367 -2.9375 18.125 C-2.92589844 17.22007813 -2.91429687 16.31515625 -2.90234375 15.3828125 C-2.83750743 12.9831415 -2.83750743 12.9831415 -4 11 C-3.5625 8.875 -3.5625 8.875 -3 7 C-2.34 7 -1.68 7 -1 7 C-0.67 4.69 -0.34 2.38 0 0 Z " fill="#514B59" transform="translate(15,35)"/>
<path d="M0 0 C4.25905516 0.15210911 7.01427598 3.27967367 10 6 C10.33 6.66 10.66 7.32 11 8 C13.11846285 8.68729254 13.11846285 8.68729254 15.5625 9.125 C16.38878906 9.29257812 17.21507813 9.46015625 18.06640625 9.6328125 C18.70449219 9.75398438 19.34257813 9.87515625 20 10 C20 12.31 20 14.62 20 17 C18.68 17 17.36 17 16 17 C15.34 17.99 14.68 18.98 14 20 C10.375 20.1875 10.375 20.1875 7 20 C7.53069061 16.17902761 8.49701566 13.93828597 11 11 C7.03429323 6.61191026 3.98808129 3.31445687 -2 2 C-1.34 1.34 -0.68 0.68 0 0 Z " fill="#908D99" transform="translate(21,44)"/>
<path d="M0 0 C3.75937983 -0.27507657 5.93919783 -0.02653185 9.4375 1.5 C13.2608126 3.10981583 15.89886199 3.25109008 20 3 C19.67 3.99 19.34 4.98 19 6 C17.33927151 6.68132451 15.672233 7.34742127 14 8 C13.01 9.485 13.01 9.485 12 11 C11.67 10.01 11.34 9.02 11 8 C8.98491642 7.26676204 8.98491642 7.26676204 7 7 C8.32 8.65 9.64 10.3 11 12 C8.11288406 10.65864082 5.70586037 9.15056005 3.25 7.125 C2.63640625 6.63257813 2.0228125 6.14015625 1.390625 5.6328125 C0 4 0 4 0 0 Z " fill="#A28182" transform="translate(26,39)"/>
<path d="M0 0 C2.98613363 1.38641918 5.62505725 2.70292422 8 5 C8.609375 8.13671875 8.609375 8.13671875 8.75 11.6875 C8.80671875 12.86699219 8.8634375 14.04648437 8.921875 15.26171875 C8.96054687 16.61716797 8.96054687 16.61716797 9 18 C7.02 18.33 5.04 18.66 3 19 C2.86722656 18.13117187 2.73445313 17.26234375 2.59765625 16.3671875 C2.42105469 15.21476562 2.24445312 14.06234375 2.0625 12.875 C1.88847656 11.73804688 1.71445312 10.60109375 1.53515625 9.4296875 C1.04410734 6.28267331 0.52981281 3.14069217 0 0 Z " fill="#FAF7F8" transform="translate(15,26)"/>
<path d="M0 0 C2.52480693 2.52480693 2.55738633 4.13823034 3.125 7.625 C3.29257813 8.62789062 3.46015625 9.63078125 3.6328125 10.6640625 C3.75398437 11.43492188 3.87515625 12.20578125 4 13 C4.33 13 4.66 13 5 13 C5 16.96 5 20.92 5 25 C4.34 24.67 3.68 24.34 3 24 C3 23.01 3 22.02 3 21 C2.34 21 1.68 21 1 21 C1 23.97 1 26.94 1 30 C0.34 30 -0.32 30 -1 30 C-0.9278125 28.75605469 -0.855625 27.51210938 -0.78125 26.23046875 C-0.28819995 17.48124723 0.17731648 8.76731492 0 0 Z " fill="#45434E" transform="translate(8,34)"/>
<path d="M0 0 C0.33 0 0.66 0 1 0 C1 3.3 1 6.6 1 10 C1.66 7.03 2.32 4.06 3 1 C3.33 1 3.66 1 4 1 C4.16986545 2.56215548 4.33573964 4.1247452 4.5 5.6875 C4.5928125 6.55761719 4.685625 7.42773438 4.78125 8.32421875 C4.99159864 10.89723339 5.03719144 13.41984364 5 16 C4.67 14.68 4.34 13.36 4 12 C3.01 12 2.02 12 1 12 C1 13.32 1 14.64 1 16 C0.34 16 -0.32 16 -1 16 C-1 15.34 -1 14.68 -1 14 C-3.64 14 -6.28 14 -9 14 C-8.34 13.67 -7.68 13.34 -7 13 C-6.67 12.01 -6.34 11.02 -6 10 C-5.34 9.67 -4.68 9.34 -4 9 C-2.86649466 6.98330173 -2.86649466 6.98330173 -2 5 C-1.67 5.33 -1.34 5.66 -1 6 C-0.67 4.02 -0.34 2.04 0 0 Z " fill="#4B424D" transform="translate(46,4)"/>
<path d="M0 0 C0.33 0 0.66 0 1 0 C1.04938628 4.23582327 1.08571263 8.47149465 1.10986328 12.70751953 C1.11992963 14.14895547 1.1335838 15.59037095 1.15087891 17.03173828 C1.17510012 19.10193934 1.18647641 21.17187076 1.1953125 23.2421875 C1.20578613 24.4885498 1.21625977 25.73491211 1.22705078 27.01904297 C1 30 1 30 -1 32 C-4.05687204 27.72037915 -4.05687204 27.72037915 -3.8125 24.625 C-3.19292969 22.62331131 -2.56671357 20.62367839 -1.9375 18.625 C-0.8024038 14.23596134 -0.36555372 10.22056197 -1.625 5.8125 C-2.13936245 3.32641484 -1.28423608 2.11521237 0 0 Z " fill="#625F64" transform="translate(53,12)"/>
<path d="M0 0 C0.66 0 1.32 0 2 0 C2 1.65 2 3.3 2 5 C4.64 5 7.28 5 10 5 C10 5.66 10 6.32 10 7 C10.66 7 11.32 7 12 7 C12 5.68 12 4.36 12 3 C12.66 3 13.32 3 14 3 C14 4.65 14 6.3 14 8 C9.66914029 9.29925791 5.48525648 10.343621 1 11 C-1.42857143 3.57142857 -1.42857143 3.57142857 0 0 Z " fill="#E1CDCB" transform="translate(35,13)"/>
<path d="M0 0 C4.18884393 0.14960157 7.1865531 3.15646276 10 6 C11.48692034 7.94303088 12.73071022 9.90078998 14 12 C12.63055898 14.94956528 11.12169591 17.52468811 9 20 C8.34 20 7.68 20 7 20 C7.53069061 16.17902761 8.49701566 13.93828597 11 11 C7.03429323 6.61191026 3.98808129 3.31445687 -2 2 C-1.34 1.34 -0.68 0.68 0 0 Z " fill="#393741" transform="translate(21,44)"/>
<path d="M0 0 C0.78375 0.04125 1.5675 0.0825 2.375 0.125 C3.035 1.445 3.695 2.765 4.375 4.125 C3.385 5.61 3.385 5.61 2.375 7.125 C-0.25 7.3125 -0.25 7.3125 -2.625 7.125 C-2.955 7.785 -3.285 8.445 -3.625 9.125 C-4.625 8.125 -4.625 8.125 -4.8125 5.1875 C-4.57390036 1.29037256 -3.98646018 0.18983144 0 0 Z " fill="#EFDED9" transform="translate(28.625,31.875)"/>
<path d="M0 0 C2.52274456 3.94311334 2.66554839 8.20820789 3.125 12.75 C3.21136719 13.54277344 3.29773438 14.33554687 3.38671875 15.15234375 C3.59800054 17.10083141 3.79992467 19.05032976 4 21 C3.34 21.33 2.68 21.66 2 22 C0.2958322 16.84053135 -0.22225605 12.5574667 -0.125 7.0625 C-0.11597656 6.37865234 -0.10695313 5.69480469 -0.09765625 4.99023438 C-0.07438958 3.32666713 -0.03853167 1.66328369 0 0 Z " fill="#D6D5D6" transform="translate(5,28)"/>
<path d="M0 0 C3.14823068 3.68100818 4.82051175 7.83782734 6.6875 12.25 C7.00783203 12.99507812 7.32816406 13.74015625 7.65820312 14.5078125 C8.44359663 16.33648991 9.22245338 18.16797236 10 20 C9.01 20.33 8.02 20.66 7 21 C5.82504857 18.06574629 4.66149148 15.12710487 3.5 12.1875 C3.16613281 11.35412109 2.83226562 10.52074219 2.48828125 9.66210938 C2.17246094 8.85966797 1.85664062 8.05722656 1.53125 7.23046875 C1.23798828 6.49207764 0.94472656 5.75368652 0.64257812 4.99291992 C0 3 0 3 0 0 Z " fill="#E4A9A7" transform="translate(46,43)"/>
<path d="M0 0 C1.0725 0.309375 2.145 0.61875 3.25 0.9375 C5.82866222 1.66812096 8.39512102 2.37482904 11 3 C11 5.31 11 7.62 11 10 C9.02 10 7.04 10 5 10 C5.66 9.34 6.32 8.68 7 8 C4.79020692 5.18060883 2.59937954 2.46941056 0 0 Z " fill="#C09797" transform="translate(30,44)"/>
<path d="M0 0 C2.14255793 -0.38932856 2.14255793 -0.38932856 4 -1 C4 2 4 2 2 5 C-0.64 4.67 -3.28 4.34 -6 4 C-6.33 2.68 -6.66 1.36 -7 0 C-3.98968256 -0.93423645 -3.13349732 -1.04449911 0 0 Z " fill="#FDFAF3" transform="translate(43,31)"/>
<path d="M0 0 C0.66 0 1.32 0 2 0 C4.28571429 8.42857143 4.28571429 8.42857143 4 13 C2.68 13.33 1.36 13.66 0 14 C0 9.38 0 4.76 0 0 Z " fill="#DC5876" transform="translate(14,8)"/>
<path d="M0 0 C2.33631383 4.67262766 3.17699369 9.10933328 4.21875 14.19921875 C4.4765625 15.12347656 4.734375 16.04773438 5 17 C5.66 17.33 6.32 17.66 7 18 C7 18.99 7 19.98 7 21 C4 20 4 20 2.8125 18.1875 C2 16 2 16 2 12 C1.34 12 0.68 12 0 12 C0 8.04 0 4.08 0 0 Z " fill="#393641" transform="translate(24,9)"/>
<path d="M0 0 C4.19499396 0.53648235 6.54248558 1.85362017 9.8125 4.5 C10.60269531 5.1290625 11.39289062 5.758125 12.20703125 6.40625 C12.79871094 6.9321875 13.39039063 7.458125 14 8 C14 8.33 14 8.66 14 9 C11.3125 9.375 11.3125 9.375 8 9 C5.3125 6.1875 5.3125 6.1875 3 3 C2.01709032 1.98319689 1.02665213 0.97261781 0 0 Z " fill="#F4EDE9" transform="translate(24,44)"/>
<path d="M0 0 C0.33 0 0.66 0 1 0 C1 7.26 1 14.52 1 22 C0.67 22 0.34 22 0 22 C0 18.7 0 15.4 0 12 C-0.66 12 -1.32 12 -2 12 C-2.17835515 7.45194365 -1.99785435 4.1205746 0 0 Z " fill="#BB7484" transform="translate(6,10)"/>
<path d="M0 0 C4.21878192 -0.19622241 7.17010894 0.19769832 11 2 C11 2.66 11 3.32 11 4 C7.7 4.33 4.4 4.66 1 5 C0.67 3.35 0.34 1.7 0 0 Z " fill="#262129" transform="translate(26,39)"/>
<path d="M0 0 C0.66 0 1.32 0 2 0 C2.09796875 0.62648437 2.1959375 1.25296875 2.296875 1.8984375 C2.44640625 2.71570313 2.5959375 3.53296875 2.75 4.375 C2.88921875 5.18710938 3.0284375 5.99921875 3.171875 6.8359375 C3.81749261 9.17709092 3.81749261 9.17709092 6.078125 10.2890625 C6.71234375 10.52367187 7.3465625 10.75828125 8 11 C6.35 11 4.7 11 3 11 C3 9.68 3 8.36 3 7 C2.34 7 1.68 7 1 7 C1 9.64 1 12.28 1 15 C0.67 15 0.34 15 0 15 C0 10.05 0 5.1 0 0 Z " fill="#40303B" transform="translate(13,1)"/>
<path d="M0 0 C0 1.32 0 2.64 0 4 C-0.99 4 -1.98 4 -3 4 C-3 3.01 -3 2.02 -3 1 C-3.66 1 -4.32 1 -5 1 C-5 2.98 -5 4.96 -5 7 C-5.99 7.495 -5.99 7.495 -7 8 C-7.79953138 4.71303767 -8.09658936 3.28976808 -7 0 C-2.25 -1.125 -2.25 -1.125 0 0 Z " fill="#6B5A68" transform="translate(36,20)"/>
<path d="M0 0 C0.66 0 1.32 0 2 0 C2 2.31 2 4.62 2 7 C0.68 7 -0.64 7 -2 7 C-2.99 8.485 -2.99 8.485 -4 10 C-4.99 9.67 -5.98 9.34 -7 9 C-5.37660195 7.29115995 -3.70680947 5.62553283 -2 4 C-1.34 4 -0.68 4 0 4 C0 2.68 0 1.36 0 0 Z " fill="#3F3B46" transform="translate(39,54)"/>
<path d="M0 0 C0.99 0.33 1.98 0.66 3 1 C3.33 4.63 3.66 8.26 4 12 C1 10 1 10 0.48828125 7.6171875 C0.40126953 6.25980469 0.40126953 6.25980469 0.3125 4.875 C0.24675781 3.96492188 0.18101563 3.05484375 0.11328125 2.1171875 C0.07589844 1.41851563 0.03851563 0.71984375 0 0 Z " fill="#48474F" transform="translate(13,26)"/>
<path d="M0 0 C0.33 0 0.66 0 1 0 C1 3.3 1 6.6 1 10 C-1.31 10 -3.62 10 -6 10 C-5.34 8.68 -4.68 7.36 -4 6 C-3.01 6 -2.02 6 -1 6 C-0.67 4.02 -0.34 2.04 0 0 Z " fill="#E7D4D0" transform="translate(41,54)"/>
<path d="M0 0 C0.33 0 0.66 0 1 0 C1.16986545 1.56215548 1.33573964 3.1247452 1.5 4.6875 C1.5928125 5.55761719 1.685625 6.42773438 1.78125 7.32421875 C1.99159864 9.89723339 2.03719144 12.41984364 2 15 C1.67 13.68 1.34 12.36 1 11 C-0.65 11.33 -2.3 11.66 -4 12 C-4 11.01 -4 10.02 -4 9 C-3.34 9 -2.68 9 -2 9 C-1.34 6.03 -0.68 3.06 0 0 Z " fill="#413A45" transform="translate(49,5)"/>
<path d="M0 0 C0.66 0 1.32 0 2 0 C4.32590854 3.63423209 4.16265833 6.77088331 4 11 C3.01 11 2.02 11 1 11 C0.67 7.37 0.34 3.74 0 0 Z " fill="#484753" transform="translate(49,4)"/>
<path d="M0 0 C0.9075 0.309375 1.815 0.61875 2.75 0.9375 C5.16563338 1.7272263 7.52780285 2.42949297 10 3 C10 3.66 10 4.32 10 5 C7.03 5 4.06 5 1 5 C0.67 3.35 0.34 1.7 0 0 Z " fill="#E1D4D2" transform="translate(18,59)"/>
<path d="M0 0 C0.33 0.66 0.66 1.32 1 2 C3.52733235 2.65555119 3.52733235 2.65555119 6 3 C6 4.32 6 5.64 6 7 C3.03 6.505 3.03 6.505 0 6 C0 4.02 0 2.04 0 0 Z " fill="#34323C" transform="translate(13,20)"/>
<path d="M0 0 C3.3520486 1.30357446 5.56383707 3.49408286 8.25 5.875 C7.59 6.535 6.93 7.195 6.25 7.875 C5.3425 7.09125 4.435 6.3075 3.5 5.5 C1.19809764 3.57447504 -0.96577207 2.05294259 -3.75 0.875 C-1.75 -0.125 -1.75 -0.125 0 0 Z " fill="#6C6575" transform="translate(22.75,44.125)"/>
<path d="M0 0 C0.33 0 0.66 0 1 0 C1.10251672 5.12583611 1.03590199 9.94997778 0 15 C-0.33 15 -0.66 15 -1 15 C-1.33 10.71 -1.66 6.42 -2 2 C-1.34 2 -0.68 2 0 2 C0 1.34 0 0.68 0 0 Z " fill="#F4E9E3" transform="translate(52,18)"/>
<path d="M0 0 C0.33 0.99 0.66 1.98 1 3 C0.67 3.33 0.34 3.66 0 4 C-0.2632246 7.94836905 -0.08997373 10.60379269 2 14 C1.01 14 0.02 14 -1 14 C-2.32229189 11.35541621 -2.09677194 9.32238699 -2.0625 6.375 C-2.05347656 5.37210938 -2.04445313 4.36921875 -2.03515625 3.3359375 C-2.02355469 2.56507812 -2.01195313 1.79421875 -2 1 C-1.34 0.67 -0.68 0.34 0 0 Z " fill="#BDB7B8" transform="translate(25,30)"/>
<path d="M0 0 C0.33 0 0.66 0 1 0 C1 1.65 1 3.3 1 5 C0.34 5 -0.32 5 -1 5 C-0.67 8.3 -0.34 11.6 0 15 C-0.66 14.67 -1.32 14.34 -2 14 C-2.05389087 12.04196493 -2.09274217 10.08351091 -2.125 8.125 C-2.14820313 7.03445312 -2.17140625 5.94390625 -2.1953125 4.8203125 C-2 2 -2 2 0 0 Z " fill="#E5E5E5" transform="translate(63,40)"/>
<path d="M0 0 C0.33 0 0.66 0 1 0 C1 5.28 1 10.56 1 16 C0.34 15.67 -0.32 15.34 -1 15 C-0.979375 13.9275 -0.95875 12.855 -0.9375 11.75 C-0.83459411 8.22191619 -0.83459411 8.22191619 -1.625 5.8125 C-2.13936245 3.32641484 -1.28423608 2.11521237 0 0 Z " fill="#9F9FA2" transform="translate(53,12)"/>
<path d="M0 0 C0.99 0.33 1.98 0.66 3 1 C3.29296875 6.95703125 3.29296875 6.95703125 3 9 C2.01 9.99 1.02 10.98 0 12 C0 8.04 0 4.08 0 0 Z " fill="#ACACAF" transform="translate(15,35)"/>
<path d="M0 0 C0.33 0 0.66 0 1 0 C1.33 3.3 1.66 6.6 2 10 C0.35 10 -1.3 10 -3 10 C-3.33 9.01 -3.66 8.02 -4 7 C-3.01 6.34 -2.02 5.68 -1 5 C-0.27034634 2.43717258 -0.27034634 2.43717258 0 0 Z " fill="#EDB2AE" transform="translate(49,16)"/>
<path d="M0 0 C0.66 0 1.32 0 2 0 C2.33 2.97 2.66 5.94 3 9 C2.01 9 1.02 9 0 9 C0 6.03 0 3.06 0 0 Z " fill="#EBEBEC" transform="translate(9,55)"/>
<path d="M0 0 C0.66 0 1.32 0 2 0 C2.33 3.63 2.66 7.26 3 11 C0 8 0 8 -1 5 C-0.5625 2.3125 -0.5625 2.3125 0 0 Z " fill="#CDA19E" transform="translate(31,25)"/>
<path d="M0 0 C3.375 0.6875 3.375 0.6875 7 2 C8.4375 4.625 8.4375 4.625 9 7 C5.18315774 5.44499019 2.80804268 2.96404505 0 0 Z " fill="#F3E5E2" transform="translate(30,44)"/>
<path d="M0 0 C2 2 2 2 2.125 4.625 C2.08375 5.40875 2.0425 6.1925 2 7 C0.68 7.33 -0.64 7.66 -2 8 C-2 7.01 -2 6.02 -2 5 C-1.34 5 -0.68 5 0 5 C0 3.35 0 1.7 0 0 Z " fill="#C14B62" transform="translate(16,14)"/>
<path d="M0 0 C1.134375 0.020625 2.26875 0.04125 3.4375 0.0625 C-0.3125 3.0625 -0.3125 3.0625 -2.5625 3.0625 C-2.8925 3.7225 -3.2225 4.3825 -3.5625 5.0625 C-4.125 3.125 -4.125 3.125 -4.5625 1.0625 C-3.5625 0.0625 -3.5625 0.0625 0 0 Z " fill="#F6EFEA" transform="translate(39.5625,18.9375)"/>
<path d="M0 0 C3.875 4.75 3.875 4.75 5 7 C3.35 7 1.7 7 0 7 C0 4.69 0 2.38 0 0 Z " fill="#E7C1BB" transform="translate(26,25)"/>
</svg>
